<svg xmlns="http://www.w3.org/2000/svg" width="128" height="42" viewBox="0 0 128 42"><defs><style>.a{fill:#efefef;font-size:31px;font-family:HelveticaNeue-CondensedBlack, Helvetica Neue;font-weight:800;}.b{fill:#fff;}</style></defs><g transform="translate(-202 -88.767)"><text class="a" transform="translate(251 121.767)"><tspan x="0" y="0">Fudge</tspan></text><path class="b" d="M21,42A21.006,21.006,0,0,1,12.826,1.65a21.005,21.005,0,0,1,16.348,38.7A20.869,20.869,0,0,1,21,42Zm.4-4.846a2.019,2.019,0,1,0,2.019,2.019A2.021,2.021,0,0,0,21.4,37.154Zm0-8.077A2.827,2.827,0,1,0,24.23,31.9,2.83,2.83,0,0,0,21.4,29.077ZM21,17.769a4.846,4.846,0,1,0,4.846,4.846A4.852,4.852,0,0,0,21,17.769ZM21,.808a7.269,7.269,0,1,0,7.269,7.269A7.277,7.277,0,0,0,21,.808Z" transform="translate(244 88.767) rotate(90)"/></g></svg>